Coordinates
version=1
nRows=13
nColumns=40
inDegrees=yes

Units are S.I. units (second, meters, Newtons, ...)
If the header above contains a line with 'inDegrees', this indicates whether rotational values are in degrees (yes) or radians (no).

endheader
time	pelvis_tilt	pelvis_list	pelvis_rotation	pelvis_tx	pelvis_ty	pelvis_tz	hip_flexion_r	hip_adduction_r	hip_rotation_r	knee_angle_r	knee_angle_r_beta	ankle_angle_r	subtalar_angle_r	mtp_angle_r	hip_flexion_l	hip_adduction_l	hip_rotation_l	knee_angle_l	knee_angle_l_beta	ankle_angle_l	subtalar_angle_l	mtp_angle_l	lumbar_extension	lumbar_bending	lumbar_rotation	arm_flex_r	arm_add_r	arm_rot_r	elbow_flex_r	pro_sup_r	wrist_flex_r	wrist_dev_r	arm_flex_l	arm_add_l	arm_rot_l	elbow_flex_l	pro_sup_l	wrist_flex_l	wrist_dev_l
      8.80000000	     29.77382475	     -4.01655477	    179.50183753	      0.39197216	      0.78127547	     -0.58124211	     87.07442046	    -10.96282426	      4.85161592	     71.13288096	      1.24150298	     17.60633911	      0.00000000	      0.00000000	     83.74372255	    -11.08047011	     -7.30365245	     70.97264790	      1.23870638	     12.91581519	      0.00000000	      0.00000000	    -55.72351792	     -2.91630636	     -6.09502440	     66.35805631	      1.29985394	      4.41059763	     20.82392737	      3.15491139	      0.00000000	      0.00000000	     63.12604655	    -18.57788447	     32.20292948	     26.98227678	     88.63179176	      0.00000000	      0.00000000
      8.80500000	     29.78035196	     -4.00205761	    179.44794124	      0.39199882	      0.78146377	     -0.58134429	     87.04402432	    -10.85062883	      4.92631320	     71.07585204	      1.24050764	     17.54844106	      0.00000000	      0.00000000	     83.74090652	    -11.22288728	     -7.42869953	     70.97550788	      1.23875630	     12.88730236	      0.00000000	      0.00000000	    -55.69231345	     -2.95007033	     -6.06748297	     66.35799123	      1.32940051	      4.42119710	     20.80687569	      3.15242368	      0.00000000	      0.00000000	     63.09240835	    -18.58263138	     32.19649339	     26.97885108	     88.63214558	      0.00000000	      0.00000000
      8.81000000	     29.78683803	     -4.01525047	    179.43476116	      0.39203492	      0.78163857	     -0.58128224	     87.03363925	    -10.83170326	      4.95811062	     71.03043858	      1.23971502	     17.51988872	      0.00000000	      0.00000000	     83.72675537	    -11.22262791	     -7.45586564	     70.94079927	      1.23815052	     12.82850961	      0.00000000	      0.00000000	    -55.66022208	     -2.96486454	     -6.07767079	     66.35339944	      1.34306212	      4.42593166	     20.77343113	      3.14826529	      0.00000000	      0.00000000	     63.07236376	    -18.57548674	     32.17852152	     26.97893214	     88.63088713	      0.00000000	      0.00000000
      8.81500000	     29.81867870	     -4.04764789	    179.45310111	      0.39211936	      0.78185970	     -0.58105133	     87.05998268	    -10.92625132	      4.89805513	     70.97845749	      1.23880778	     17.45516560	      0.00000000	      0.00000000	     83.72154663	    -11.15126479	     -7.45323571	     70.86903515	      1.23689800	     12.79164271	      0.00000000	      0.00000000	    -55.61497797	     -2.95708179	     -6.12015346	     66.36962575	      1.35326725	      4.42338006	     20.73079200	      3.14295921	      0.00000000	      0.00000000	     63.06558820	    -18.55274782	     32.14937415	     26.96628164	     88.62943912	      0.00000000	      0.00000000
      8.82000000	     29.83172933	     -4.06759343	    179.48456102	      0.39216748	      0.78205092	     -0.58085812	     87.07421494	    -11.02948656	      4.81938203	     70.95302300	      1.23836387	     17.39867980	      0.00000000	      0.00000000	     83.70269033	    -11.00593286	     -7.32898545	     70.79403512	      1.23558900	     12.77274360	      0.00000000	      0.00000000	    -55.58233008	     -2.93223091	     -6.15958984	     66.37624056	      1.37321294	      4.39912035	     20.66797261	      3.13412441	      0.00000000	      0.00000000	     63.05549393	    -18.50751748	     32.09269364	     26.91753995	     88.62795672	      0.00000000	      0.00000000
      8.82500000	     29.82962818	     -4.03618539	    179.42031344	      0.39218340	      0.78222466	     -0.58097391	     87.03943709	    -10.88951390	      4.90360155	     70.91436514	      1.23768916	     17.32905189	      0.00000000	      0.00000000	     83.68278752	    -11.11486611	     -7.37743409	     70.78372191	      1.23540900	     12.82164539	      0.00000000	      0.00000000	    -55.56018090	     -2.94963917	     -6.09543107	     66.37208765	      1.38416404	      4.38778548	     20.64793994	      3.13126443	      0.00000000	      0.00000000	     63.03052002	    -18.48132466	     32.07741261	     26.89487095	     88.62791382	      0.00000000	      0.00000000
      8.83000000	     29.86035191	     -4.04112130	    179.47742445	      0.39229994	      0.78245873	     -0.58064522	     87.04444042	    -11.01348604	      4.81799547	     70.84527128	      1.23648324	     17.31054288	      0.00000000	      0.00000000	     83.68838389	    -10.93440936	     -7.22791583	     70.69457351	      1.23385307	     12.76120546	      0.00000000	      0.00000000	    -55.51306978	     -2.87775130	     -6.12107766	     66.37845686	      1.37757151	      4.34797566	     20.60899551	      3.12304505	      0.00000000	      0.00000000	     63.03351919	    -18.39954501	     32.05849866	     26.79778138	     88.63994182	      0.00000000	      0.00000000
      8.83500000	     29.86200697	     -4.01541028	    179.40538228	      0.39234120	      0.78262272	     -0.58079780	     87.01421885	    -10.89753004	      4.85123619	     70.79955681	      1.23568538	     17.25039144	      0.00000000	      0.00000000	     83.66867341	    -11.04258684	     -7.26903919	     70.67495213	      1.23351061	     12.82310266	      0.00000000	      0.00000000	    -55.47933363	     -2.90177523	     -6.04414426	     66.36926823	      1.38158710	      4.33365748	     20.58632512	      3.11901153	      0.00000000	      0.00000000	     63.02408869	    -18.37276835	     32.03462269	     26.78146397	     88.63022030	      0.00000000	      0.00000000
      8.84000000	     29.88827019	     -4.01935235	    179.46609393	      0.39249193	      0.78282114	     -0.58045151	     87.01561505	    -11.03960239	      4.73953199	     70.73243290	      1.23451384	     17.25034841	      0.00000000	      0.00000000	     83.67843643	    -10.85914161	     -7.11502396	     70.59335511	      1.23208648	     12.76866341	      0.00000000	      0.00000000	    -55.42380814	     -2.82120862	     -6.05587906	     66.36989768	      1.37348904	      4.29676826	     20.53980613	      3.10996101	      0.00000000	      0.00000000	     63.01407641	    -18.27714061	     31.98013018	     26.70788610	     88.62030923	      0.00000000	      0.00000000
      8.84500000	     29.89577197	     -3.99681829	    179.45719510	      0.39253986	      0.78310624	     -0.58029695	     86.97873565	    -11.05753200	      4.68389046	     70.66024938	      1.23325400	     17.19949964	      0.00000000	      0.00000000	     83.65967356	    -10.82839294	     -7.06164511	     70.53670398	      1.23109773	     12.75062474	      0.00000000	      0.00000000	    -55.39023201	     -2.78078064	     -6.02831902	     66.36603988	      1.39382735	      4.27557129	     20.49853270	      3.09669858	      0.00000000	      0.00000000	     62.97987684	    -18.22488516	     31.92546231	     26.66510884	     88.62130504	      0.00000000	      0.00000000
      8.85000000	     29.89348660	     -3.98378460	    179.38370724	      0.39261551	      0.78330297	     -0.58034864	     86.95195509	    -10.94663704	      4.73764816	     70.61495267	      1.23246343	     17.11979453	      0.00000000	      0.00000000	     83.64547271	    -10.93033236	     -7.10844117	     70.51680337	      1.23075040	     12.76893828	      0.00000000	      0.00000000	    -55.35767587	     -2.80791395	     -5.98089872	     66.36202751	      1.41070085	      4.26838243	     20.47393498	      3.09112010	      0.00000000	      0.00000000	     62.93776318	    -18.21223388	     31.90031449	     26.64051678	     88.62164744	      0.00000000	      0.00000000
      8.85500000	     29.90816403	     -4.01529336	    179.44553747	      0.39272598	      0.78348444	     -0.58000126	     86.97059801	    -11.10366815	      4.64778096	     70.58497084	      1.23194014	     17.09264957	      0.00000000	      0.00000000	     83.66229119	    -10.78919292	     -7.04573623	     70.47967291	      1.23010235	     12.61640795	      0.00000000	      0.00000000	    -55.30607883	     -2.75509410	     -6.05126365	     66.37407480	      1.43242569	      4.23100216	     20.41912102	      3.08233309	      0.00000000	      0.00000000	     62.91077336	    -18.17438494	     31.79425706	     26.60422184	     88.61761206	      0.00000000	      0.00000000
      8.86000000	     29.89905950	     -4.00944064	    179.38890491	      0.39280312	      0.78365800	     -0.57998466	     86.94222622	    -11.03246113	      4.68735400	     70.54401052	      1.23122525	     17.01201254	      0.00000000	      0.00000000	     83.64685487	    -10.86317947	     -7.09000318	     70.47345387	      1.22999381	     12.61524221	      0.00000000	      0.00000000	    -55.27491081	     -2.78176872	     -6.01805665	     66.37554276	      1.45203282	      4.21568338	     20.37871835	      3.07791663	      0.00000000	      0.00000000	     62.87692205	    -18.15796746	     31.73770562	     26.59865594	     88.61591193	      0.00000000	      0.00000000
